<?xml version="1.0" standalone="no"?>
<!DOCTYPE svg PUBLIC "-//W3C//DTD SVG 20010904//EN"
 "http://www.w3.org/TR/2001/REC-SVG-20010904/DTD/svg10.dtd">
<svg version="1.0" xmlns="http://www.w3.org/2000/svg"
 width="735.000000pt" height="441.000000pt" viewBox="0 0 735.000000 441.000000"
 preserveAspectRatio="xMidYMid meet">

<g transform="translate(0.000000,441.000000) scale(0.100000,-0.100000)"
fill="#000000" stroke="none">
<path d="M3366 3234 c-888 -88 -1598 -433 -1829 -889 -93 -185 -96 -402 -8
-592 92 -197 306 -402 566 -543 l60 -33 -72 67 c-560 520 -340 1173 524 1555
960 425 2396 350 3193 -166 95 -61 82 -39 -30 52 -369 300 -947 498 -1615 555
-167 14 -622 10 -789 -6z"/>
<path d="M2830 1970 l0 -810 130 0 130 0 2 645 3 645 120 -142 c66 -78 158
-187 204 -243 47 -55 123 -144 169 -198 l83 -97 172 207 c350 422 643 778 651
791 6 9 -22 12 -127 12 l-134 0 -264 -311 c-145 -171 -271 -319 -279 -330 -14
-17 -24 -7 -160 153 -80 95 -205 243 -279 330 l-134 158 -143 0 -144 0 0 -810z"/>
<path d="M4169 2178 c-183 -222 -369 -447 -413 -501 -44 -53 -83 -96 -87 -95
-4 2 -107 120 -229 263 -122 143 -228 267 -236 275 -12 12 -14 -11 -14 -165
l0 -180 233 -270 c128 -148 238 -270 244 -270 10 0 55 53 428 504 l160 194 3
-387 2 -386 125 0 125 0 0 710 c0 391 -2 710 -5 710 -2 0 -154 -181 -336 -402z"/>
</g>
</svg>
