<?xml version="1.0" standalone="no"?>
<!DOCTYPE svg PUBLIC "-//W3C//DTD SVG 20010904//EN"
 "http://www.w3.org/TR/2001/REC-SVG-20010904/DTD/svg10.dtd">
<svg version="1.0" xmlns="http://www.w3.org/2000/svg"
 width="866.000000pt" height="650.000000pt" viewBox="0 0 866.000000 650.000000"
 preserveAspectRatio="xMidYMid meet">

<g transform="translate(0.000000,650.000000) scale(0.100000,-0.100000)"
fill="#000000" stroke="none">
<path d="M2973 3250 l2 -2255 40 3 c153 12 302 110 377 249 61 111 58 30 58
1630 0 834 4 1463 9 1463 5 0 203 -197 440 -437 l432 -438 685 687 684 686 0
331 c0 182 -3 331 -6 331 -3 0 -309 -303 -680 -672 -370 -370 -678 -673 -684
-673 -6 0 -314 304 -685 675 l-675 675 3 -2255z"/>
<path d="M1994 5094 c3 -9 6 -756 6 -1660 l0 -1644 33 0 c134 1 309 115 381
249 58 109 56 51 56 1374 l0 1218 -192 197 c-106 108 -211 216 -232 240 -40
43 -63 55 -52 26z"/>
<path d="M5955 4404 c-390 -388 -916 -911 -1167 -1161 -251 -250 -461 -454
-467 -452 -5 2 -91 84 -189 181 -99 98 -182 178 -186 178 -3 0 -6 -150 -6
-332 l0 -333 190 -190 190 -189 42 39 c23 22 299 295 613 606 313 311 712 706
885 877 l315 311 5 -882 c5 -871 6 -883 27 -937 37 -96 55 -123 122 -190 91
-89 199 -139 304 -140 l37 0 0 1660 c0 913 -1 1660 -2 1660 -2 -1 -322 -318
-713 -706z"/>
<path d="M5453 2542 l-232 -237 -1 -445 c0 -491 2 -509 62 -622 74 -139 243
-248 385 -248 l33 0 0 895 c0 492 -3 895 -7 894 -5 0 -112 -107 -240 -237z"/>
</g>
</svg>
